<svg xmlns="http://www.w3.org/2000/svg" xmlns:xlink="http://www.w3.org/1999/xlink" width="880.673" height="161.141" viewBox="0 0 880.673 161.141"><defs><style>.a{fill:#575455;}.b{clip-path:url(#a);}</style><clipPath id="a"><rect class="a" width="880.673" height="161.141"/></clipPath></defs><g class="b"><path class="a" d="M48.922,11.372H9.06Q4.53,19.218,0,27.075H16.307q-.489,61.9-.972,123.814H52.546c30.156-7.8,52.328-32.427,55.566-61,3.944-34.879-20.97-69.88-59.189-78.516M73.685,120.691c-16,15.715-35.713,16.277-39.862,16.307V27.075A59.363,59.363,0,0,1,70.665,40.967c3.727,3.189,19.363,17.02,19.931,39.862.519,21.03-12.1,35.127-16.911,39.862" transform="translate(0 -4.504)"/><path class="a" d="M235.251,8.4c-18.24.06-34.185,13.952-36.842,32.615.181,18.723.423,37.446.6,56.169h-6.644c-3.02,5.255-6.04,10.449-9.06,15.7H196.6c.423,12.683.785,25.367,1.208,38.05h15.7V112.284h43.486c-.181,12.865-.423,25.79-.6,38.654h13.891q1.178-53.723,2.416-107.507c-1.51-19.81-18.18-35.091-37.446-35.03M213.508,97.185V38.6a22.488,22.488,0,0,1,42.882,0c.181,19.508.423,39.077.6,58.585Z" transform="translate(-72.595 -3.327)"/><path class="a" d="M482.152,38.936c-2.476-3.322-25.125-32.373-60.4-31.407-36.842,1.027-72.054,34.245-70.061,75.5,1.752,35.936,31.346,67.162,68.853,68.249,37.628,1.087,70.363-28.568,73.081-67.041-21.139-.181-42.278-.423-63.417-.6-3.443,5.255-6.825,10.449-10.268,15.7,18.723.181,37.446.423,56.169.6-9.784,22.83-32.131,37.2-55.566,36.238-28.628-1.208-53.029-25.125-54.358-54.358-1.51-33.037,26.937-59.129,56.169-59.793,27.843-.664,45.66,22.045,47.714,24.763,4.047-2.657,8.093-5.255,12.079-7.852" transform="translate(-139.248 -2.973)"/><path class="a" d="M742.506,150.934Q742.325,75.467,742.2,0,770.47,48.47,798.736,96.878q-.181-43.758-.3-87.576h16.428q.272,75.919.6,151.839-27-40.678-54.056-81.355-1.268,35.6-2.476,71.269c-5.5-.06-10.932-.06-16.428-.121" transform="translate(-293.933 0)"/><path class="a" d="M665.981,15.546c.06,5.436.121,10.811.242,16.186q-25.457-.091-50.915-.242c-.121,9.12-.242,18.241-.423,27.36,10.63-.06,21.32-.06,31.95-.121l2.174,16.67c-11.476,0-22.891-.06-34.366-.06.242,21.562.423,43.124.664,64.686q25-.091,50.009-.242c.06,5.617.121,11.234.242,16.911-22.589-.121-45.177-.3-67.766-.423q-.544-40.587-1.148-81.114H581.3c2.416-5.557,4.832-11.113,7.187-16.669h9.664c-.121-14.375-.3-28.81-.423-43.184q34.064.182,68.249.242" transform="translate(-230.212 -6.061)"/><path class="a" d="M944.937,45.588c4.349-3.248,8.7-6.555,13.106-9.8a39.651,39.651,0,0,0-18.663-15.9c-13.167-5.337-30.863-3.887-42.339,7.193a35.308,35.308,0,0,0-10.388,25.467c.544,14.56,10.992,27.844,26.575,33.878,1.51.522,3.866,1.334,6.7,2.32,16.549,5.743,17.757,5.685,20.173,7.193,7.308,4.641,10.932,14.329,10.57,21.811-.544,11.6-10.751,24.538-25.971,25.293-14.314.754-27.118-9.572-28.87-23.437l-12.683,3.133c3.624,20.42,21.32,35.212,40.949,35.676,25.246.522,43.3-23.03,42.882-43.217-.362-16.823-14.375-28.947-15.945-30.281a47.9,47.9,0,0,0-13.952-8.238c-5.255-1.16-10.449-2.262-15.7-3.423-10.509-1.8-18.24-10.442-18.481-20.3-.242-10.848,8.636-20.42,19.81-21.231a22.329,22.329,0,0,1,22.226,13.865" transform="translate(-349.752 -6.691)"/><path class="a" d="M1115.045,70.958c-.06-24.28-18.482-46.144-44.09-50.734h-39.862c-3.02,5.255-6.04,10.449-9.06,15.7h16.911q.074,30.794.3,61.605.23,31.112.615,62.209h15.1V119.88h6.935c10.449,13.287,20.958,26.575,31.406,39.862h19.64q-7.547-10.219-16.016-20.837-8.223-10.283-16.307-19.629c20.716-7.852,34.426-27.3,34.426-48.318m-59.793,34.426c.181-23.132.423-46.325.6-69.457h13.287a34.874,34.874,0,0,1,.6,69.457Z" transform="translate(-404.753 -8.009)"/><path class="a" d="M1268.41,15.916c.06,5.436.121,10.811.242,16.186q-25.457-.091-50.915-.242c-.121,9.12-.242,18.241-.423,27.36,10.63-.06,21.32-.06,31.95-.121l2.174,16.67c-11.475,0-22.891-.06-34.366-.06.242,21.562.423,43.124.664,64.686q25-.091,50.009-.242c.06,5.617.121,11.234.242,16.911-22.589-.121-45.177-.3-67.766-.423q-.543-40.587-1.147-81.114h-15.341c2.416-5.557,4.832-11.113,7.187-16.669h9.664c-.121-14.375-.3-28.81-.423-43.184q34.064.182,68.249.242" transform="translate(-468.79 -6.207)"/><path class="a" d="M1343.933,16.075c.061,5.241.121,10.545.121,15.787,8.878,0,17.757.061,26.635.061q0,62.536.06,125.133c5.073.06,10.147.182,15.22.244q1-62.537,1.993-125.133l24.944-.183v-15.6c-23.011-.123-45.962-.184-68.974-.306" transform="translate(-532.233 -6.366)"/></g></svg>