<svg xmlns="http://www.w3.org/2000/svg" xmlns:xlink="http://www.w3.org/1999/xlink" width="776.6" height="160.104" viewBox="0 0 776.6 160.104"><defs><style>.a{fill:#575455;}.b{clip-path:url(#a);}</style><clipPath id="a"><rect class="a" width="776.6" height="160.104"/></clipPath></defs><g class="b"><path class="a" d="M391.482,0a77.482,77.482,0,1,0,77.482,77.482A77.482,77.482,0,0,0,391.482,0m0,139.862a62.38,62.38,0,1,1,62.38-62.38,62.377,62.377,0,0,1-62.38,62.38" transform="translate(-107.818)"/><path class="a" d="M566.96,160.971q.657-75.513,1.313-151.025h15.759V65.1L620.8,9.946h16.416L603.731,59.029l58.44,101.942H645.1L596.508,72.244,584.032,89.4q-.328,35.786-.657,71.573Z" transform="translate(-194.677 -3.415)"/><path class="a" d="M994.714,39.194c4.728-3.531,9.455-7.126,14.249-10.658a43.109,43.109,0,0,0-20.29-17.281c-14.315-5.8-33.554-4.225-46.03,7.82C931.021,30.364,931.284,45,931.35,46.762c.591,15.829,11.951,30.272,28.892,36.832,1.641.568,4.2,1.451,7.289,2.523,17.992,6.244,19.3,6.18,21.931,7.82,7.945,5.046,11.885,15.578,11.491,23.713-.591,12.614-11.688,26.678-28.235,27.5-15.562.819-29.483-10.406-31.387-25.48l-13.789,3.406c3.94,22.2,23.179,38.282,44.52,38.787,27.447.568,47.08-25.038,46.621-46.985-.394-18.29-15.628-31.471-17.335-32.921A52.075,52.075,0,0,0,986.178,73c-5.713-1.261-11.36-2.46-17.072-3.721-11.425-1.955-19.83-11.352-20.093-22.074C948.75,35.409,958.4,25,970.55,24.12a24.276,24.276,0,0,1,24.164,15.074" transform="translate(-318.49 -2.747)"/><path class="a" d="M1068.505,10c.065,5.7.131,11.464.131,17.163,9.653,0,19.3.066,28.958.066q0,67.988.066,136.043c5.516.066,11.031.2,16.547.265q1.083-67.989,2.167-136.043l27.118-.2V10.332c-25.018-.133-49.97-.2-74.987-.332" transform="translate(-366.892 -3.434)"/><path class="a" d="M242.6,57.157C242.537,30.76,222.51,6.99,194.669,2H151.331c-3.283,5.713-6.566,11.36-9.849,17.072h18.386q.081,33.479.328,66.976.25,33.824.668,67.633H177.28V110.344h7.539c11.36,14.446,22.785,28.892,34.145,43.338h21.352q-8.206-11.11-17.413-22.654-8.94-11.179-17.729-21.34c22.522-8.536,37.428-29.68,37.428-52.53M177.6,94.585c.2-25.149.46-50.364.657-75.512H192.7a37.914,37.914,0,0,1,.657,75.512Z" transform="translate(-48.581 -0.687)"/><path class="a" d="M16.416,3q-.328,23.967-.657,47.934H6.566L0,64.723H15.759q-.328,44.651-.657,89.3H31.518q.328-44.323.657-88.645h30.2V51.591l-30.2-.657V20.072H80.766Q80.438,11.536,80.109,3Z" transform="translate(0 -1.03)"/><path class="a" d="M769.147,7.051A77.482,77.482,0,1,0,846.63,84.533,77.482,77.482,0,0,0,769.147,7.051m0,139.862a62.38,62.38,0,1,1,62.38-62.38,62.377,62.377,0,0,1-62.38,62.38" transform="translate(-237.497 -2.421)"/></g></svg>