<svg xmlns="http://www.w3.org/2000/svg" width="587.999" height="160.944" viewBox="0 0 587.999 160.944"><defs><style>.a{fill:#fffff4;}</style></defs><path class="a" d="M143.746,35.57C141,31.925,116.106-.07,77.241.987,36.7,2.091-2.127,38.7.094,84.119c1.935,39.6,34.5,73.987,75.816,75.151,41.406,1.17,77.492-31.424,80.472-73.821q-34.915-.329-69.831-.665Q80.9,93.433,75.245,102.076q30.925.329,61.85.665c-10.787,25.139-35.361,40.994-61.185,39.9-31.537-1.33-58.372-27.653-59.855-59.855-1.676-36.365,29.681-65.1,61.85-65.84,30.632-.7,50.258,24.268,52.539,27.267Q137.1,39.9,143.746,35.57Z" transform="translate(-0.003 -0.322)"/><path class="a" d="M340.559,60.865C340.512,34.1,320.2,10.034,292.01,5H248.116q-4.988,8.649-9.976,17.291h18.622q.329,67.836.665,135.671,7.981-.329,15.961-.665-.329-21.278-.665-42.564h9.311q17.288,21.947,34.583,43.894,10.973-.668,21.947-1.33-17.956-21.618-35.913-43.229C325.482,105.437,340.6,84.015,340.559,60.865Zm-65.84,37.908q.329-38.237.665-76.481h14.631a38.4,38.4,0,0,1,.665,76.481Z" transform="translate(-79.765 -1.674)"/><path class="a" d="M467.335,0c-20.1.093-37.655,15.376-40.568,35.913q.329,30.925.665,61.85h-7.316q-4.988,8.649-9.976,17.291h14.631q.668,20.949,1.33,41.9h17.291V114.389h47.884q-.329,21.278-.665,42.564h15.3q1.327-59.187,2.66-118.38C506.879,16.726,488.53-.1,467.335,0ZM443.393,97.763V33.253a24.763,24.763,0,0,1,47.219,0q.329,32.252.665,64.51Z" transform="translate(-137.376 0.001)"/><path class="a" d="M573.14,5q28.6,78.809,57.195,157.618Q658.6,84.138,686.865,5.665q-8.31-.329-16.626-.665Q650.616,59.2,631,113.4,611.048,59.205,591.1,5Z" transform="translate(-191.972 -1.674)"/><path class="a" d="M751.14,5.33Q768.767,46.9,786.388,88.462q.329,34.586.665,69.166h15.961V88.462Q821.3,46.234,839.592,4H821.636q-13.3,30.925-26.6,61.85Q782.065,35.593,769.1,5.33Z" transform="translate(-251.593 -1.339)"/></svg>