<svg xmlns="http://www.w3.org/2000/svg" width="549.99" height="150.54" viewBox="0 0 549.99 150.54"><defs><style>.a{fill:#575455;}</style></defs><path class="a" d="M134.454,33.333C131.885,29.924,108.6,0,72.248.985,34.327,2.018-1.989,36.263.088,78.743,1.9,115.781,32.361,147.948,71,149.037c38.73,1.095,72.483-29.393,75.27-69.049q-32.658-.308-65.317-.622-5.291,8.09-10.575,16.174,28.926.308,57.852.622c-10.09,23.514-33.075,38.344-57.23,37.324-29.5-1.244-54.6-25.865-55.986-55.986C13.45,43.485,42.781,16.605,72.87,15.915c28.652-.653,47.009,22.7,49.143,25.5Q128.237,37.379,134.454,33.333Z" transform="translate(-0.003 -0.363)"/><path class="a" d="M333.938,57.253C333.894,32.222,314.9,9.709,288.527,5H247.471q-4.665,8.09-9.331,16.174h17.418q.308,63.451.622,126.9,7.465-.308,14.93-.622-.308-19.9-.622-39.812H279.2q16.171,20.528,32.347,41.056,10.264-.625,20.528-1.244-16.8-20.22-33.591-40.434C319.836,98.944,333.975,78.907,333.938,57.253ZM272.354,92.711q.308-35.766.622-71.537h13.685a35.918,35.918,0,0,1,.622,71.537Z" transform="translate(-90.003 -1.889)"/><path class="a" d="M463.638,0c-18.8.087-35.221,14.382-37.946,33.591q.308,28.926.622,57.852h-6.843q-4.665,8.09-9.331,16.174h13.685q.625,19.6,1.244,39.19h16.174V106.995h44.789q-.308,19.9-.622,39.812h14.307q1.241-55.361,2.488-110.727C500.625,15.645,483.463-.094,463.638,0ZM441.243,91.443V31.1a23.162,23.162,0,0,1,44.167,0q.308,30.167.622,60.34Z" transform="translate(-155.009 0.001)"/><path class="a" d="M573.14,5q26.752,73.715,53.5,147.429Q653.072,79.023,679.513,5.622,671.74,5.314,663.961,5q-18.354,50.7-36.7,101.4Q608.6,55.7,589.936,5Z" transform="translate(-216.613 -1.889)"/><path class="a" d="M751.14,5.244Q767.628,44.126,784.109,83q.308,32.35.622,64.695h14.93V83q17.1-39.5,34.214-79h-16.8Q804.641,32.926,792.2,61.852q-12.13-28.3-24.26-56.608Z" transform="translate(-283.884 -1.511)"/></svg>