<svg xmlns="http://www.w3.org/2000/svg" xmlns:xlink="http://www.w3.org/1999/xlink" width="56" height="57" viewBox="0 0 56 57"><defs><style>.a{fill:#575455;}.b{clip-path:url(#a);}</style><clipPath id="a"><rect class="a" width="56" height="57"/></clipPath></defs><g class="b"><path class="a" d="M35.82,15.12H20.18A5.181,5.181,0,0,0,15,20.3V36.82A5.181,5.181,0,0,0,20.18,42H35.82A5.181,5.181,0,0,0,41,36.82V20.3a5.181,5.181,0,0,0-5.18-5.18M28,37a8.263,8.263,0,0,1-8-8.5A8.263,8.263,0,0,1,28,20a8.263,8.263,0,0,1,8,8.5A8.263,8.263,0,0,1,28,37m9-15a2,2,0,1,1,2-2,2.006,2.006,0,0,1-2,2"/><path class="a" d="M47.8,8.2A28,28,0,0,0,0,28v1a28,28,0,0,0,56,0V28A27.952,27.952,0,0,0,47.8,8.2M44,35.19A9.807,9.807,0,0,1,34.19,45H21.81A9.807,9.807,0,0,1,12,35.19V21.81A9.807,9.807,0,0,1,21.81,12H34.19A9.807,9.807,0,0,1,44,21.81Z"/><path class="a" d="M35.82,15.12H20.18A5.181,5.181,0,0,0,15,20.3V36.82A5.181,5.181,0,0,0,20.18,42H35.82A5.181,5.181,0,0,0,41,36.82V20.3a5.181,5.181,0,0,0-5.18-5.18M28,37a8.263,8.263,0,0,1-8-8.5A8.263,8.263,0,0,1,28,20a8.263,8.263,0,0,1,8,8.5A8.263,8.263,0,0,1,28,37m9-15a2,2,0,1,1,2-2,2.006,2.006,0,0,1-2,2"/><path class="a" d="M35.82,15.12H20.18A5.181,5.181,0,0,0,15,20.3V36.82A5.181,5.181,0,0,0,20.18,42H35.82A5.181,5.181,0,0,0,41,36.82V20.3a5.181,5.181,0,0,0-5.18-5.18M28,37a8.263,8.263,0,0,1-8-8.5A8.263,8.263,0,0,1,28,20a8.263,8.263,0,0,1,8,8.5A8.263,8.263,0,0,1,28,37m9-15a2,2,0,1,1,2-2,2.006,2.006,0,0,1-2,2"/></g></svg>