<svg xmlns="http://www.w3.org/2000/svg" xmlns:xlink="http://www.w3.org/1999/xlink" width="579.167" height="146.989" viewBox="0 0 579.167 146.989"><defs><style>.a{fill:#575455;}.b{clip-path:url(#a);}</style><clipPath id="a"><rect class="a" width="579.167" height="146.989"/></clipPath></defs><g class="b"><path class="a" d="M0,145.115Q.551,81.758,1.1,18.4H14.324V64.679L45.176,18.4H58.95l-28.1,41.182,49.033,85.532H65.561L24.792,70.671,14.324,85.064q-.275,30.026-.551,60.052Z" transform="translate(0 -8.263)"/><path class="a" d="M189.715,15.506a65.01,65.01,0,1,0,65.01,65.01,65.01,65.01,0,0,0-65.01-65.01m0,117.349a52.339,52.339,0,1,1,52.339-52.339,52.336,52.336,0,0,1-52.339,52.339" transform="translate(-56.001 -6.963)"/><path class="a" d="M683.38,12.4c-16.638.055-31.183,12.727-33.607,29.75.165,17.079.386,34.158.551,51.237h-6.06c-2.755,4.793-5.509,9.531-8.264,14.324h12.121c.386,11.57.716,23.139,1.1,34.709h14.324v-35.26h39.667c-.165,11.735-.386,23.525-.551,35.26h12.671q1.074-49.005,2.2-98.066C716.161,26.284,700.955,12.346,683.38,12.4M663.547,93.388V39.947a20.513,20.513,0,0,1,39.116,0c.165,17.8.386,35.645.551,53.44Z" transform="translate(-285.607 -5.569)"/><path class="a" d="M522.449,17.854c.055,4.738.11,9.531.11,14.269,8.1,0,16.2.055,24.3.055q0,56.526.055,113.106c4.628.055,9.256.165,13.883.22Q561.7,88.979,562.612,32.4l22.753-.165V18.13q-31.4-.165-62.916-.276" transform="translate(-234.615 -8.018)"/><path class="a" d="M379.524,137.679Q379.358,68.84,379.249,0q25.784,44.212,51.567,88.37-.166-39.915-.276-79.885h14.985q.248,69.252.551,138.5-24.627-37.105-49.309-74.211-1.157,32.477-2.258,65.01c-5.013-.055-10.027-.055-14.985-.11" transform="translate(-170.309 0)"/><path class="a" d="M804,142.115q.551-63.358,1.1-126.714h13.222V61.679L849.176,15.4H862.95l-28.1,41.182,49.033,85.532H869.561L828.792,67.671,818.324,82.064q-.275,30.026-.551,60.052Z" transform="translate(-354.936 -3.553)"/><path class="a" d="M937.048,14.4c.055,4.738.11,9.531.11,14.269,8.1,0,16.2.055,24.3.055q0,56.526.055,113.106c4.628.055,9.256.165,13.883.22q.909-56.526,1.818-113.106l22.754-.165V14.68q-31.4-.165-62.917-.276" transform="translate(-414.683 -3.493)"/></g></svg>