<svg xmlns="http://www.w3.org/2000/svg" xmlns:xlink="http://www.w3.org/1999/xlink" width="56" height="57" viewBox="0 0 56 57"><defs><style>.a{fill:#fffff4;}.b{clip-path:url(#a);}</style><clipPath id="a"><rect class="a" width="56" height="57"/></clipPath></defs><g class="b"><path class="a" d="M47.8,8.2A28,28,0,0,0,0,28v1a28,28,0,0,0,56,0V28A27.952,27.952,0,0,0,47.8,8.2M42.47,39.1A7.872,7.872,0,0,1,38,43a8.324,8.324,0,0,1-4,0,18.128,18.128,0,0,1-7-3,34.194,34.194,0,0,1-7-6,30.8,30.8,0,0,1-4-5c-1.65-2.62-2.89-4.59-3-7-.16-3.63,2.31-6.55,3.91-8.05a1.473,1.473,0,0,1,2.06.02l4.95,4.95a1.47,1.47,0,0,1-.03,2.11C22.66,22.2,21.7,23.22,21,24a3.317,3.317,0,0,0-1,2c-.16,1.5,1.09,2.44,5,6,3.45,3.14,4.51,4.24,6,4a5.162,5.162,0,0,0,2-1,11.154,11.154,0,0,0,2.12-1.86A1.464,1.464,0,0,1,37.17,33q2.49,2.13,4.97,4.26a1.483,1.483,0,0,1,.33,1.84"/></g></svg>