<svg xmlns="http://www.w3.org/2000/svg" xmlns:xlink="http://www.w3.org/1999/xlink" width="360.899" height="151.779" viewBox="0 0 360.899 151.779"><defs><style>.a{fill:#575455;}.b{clip-path:url(#a);}</style><clipPath id="a"><rect class="a" width="360.899" height="151.779"/></clipPath></defs><g class="b"><path class="a" d="M362.384,142.165Q362.214,71.083,362.1,0q26.624,45.653,53.248,91.249-.171-41.216-.284-82.488h15.474q.256,71.509.569,143.017-25.429-38.314-50.915-76.629-1.195,33.536-2.332,67.128c-5.177,0-10.354-.056-15.474-.114" transform="translate(-156.107 0)"/><path class="a" d="M0,142.85V3.7Q24.746,30.837,49.55,57.973,74.04,32.031,98.474,6.034l1.195,137.044c-5.461.114-10.866.171-16.327.284q-.256-48.895-.455-97.848-16.981,17.92-33.905,35.9Q31.488,61.87,13.995,42.386q.512,50.176,1.081,100.352c-5.006.113-10.012.113-15.075.113" transform="translate(0 -1.596)"/><path class="a" d="M274.858,15.471c.057,5.12.114,10.183.228,15.246q-23.978-.085-47.957-.228c-.114,8.59-.228,17.181-.4,25.77,10.012-.056,20.082-.056,30.094-.114l2.048,15.7c-10.809,0-21.561-.057-32.369-.057.228,20.309.4,40.618.626,60.927q23.552-.085,47.1-.228c.057,5.291.114,10.581.228,15.929-21.276-.114-42.553-.284-63.829-.4q-.512-38.229-1.081-76.344H195.1c2.276-5.234,4.551-10.468,6.77-15.7h9.1c-.114-13.539-.284-27.136-.4-40.675l64.284.172" transform="translate(-84.111 -6.596)"/><path class="a" d="M523.631,14.685V115.435a20.7,20.7,0,0,0,41.3-.455q-.427-50.09-.91-100.124c5.234-.171,10.467-.284,15.7-.455q.085,52.48.228,104.959a36.676,36.676,0,0,1-71.395.91q-.256-52.48-.455-104.959c5.177-.17,10.354-.4,15.531-.626" transform="translate(-219.05 -6.209)"/></g></svg>