<svg xmlns="http://www.w3.org/2000/svg" xmlns:xlink="http://www.w3.org/1999/xlink" width="1392.855" height="160.315" viewBox="0 0 1392.855 160.315"><defs><style>.a{fill:#60886c;}.b{clip-path:url(#a);}</style><clipPath id="a"><rect class="a" width="1392.855" height="160.315"/></clipPath></defs><g transform="translate(0)"><g class="b"><path class="a" d="M109.547,90.837c-2.078-2.788-21.085-27.167-50.685-26.356C27.945,65.342-1.6,93.219.068,127.837c1.47,30.157,26.305,56.361,57.78,57.274,31.577.912,59.048-23.974,61.328-56.26-17.74-.152-35.479-.355-53.219-.507-2.889,4.41-5.727,8.768-8.616,13.178,15.712.152,31.424.355,47.137.507-8.211,19.159-26.964,31.222-46.63,30.411-24.025-1.014-44.5-21.085-45.616-45.616C10.965,99.1,34.838,77.2,59.369,76.645c23.366-.558,38.318,18.5,40.041,20.781,3.4-2.23,6.792-4.41,10.137-6.589" transform="translate(0 -31.789)"/><path class="a" d="M316.188,111.075c-.051-20.375-15.509-38.723-37-42.575H245.737c-2.534,4.41-5.068,8.768-7.6,13.178h14.192q.228,51.7.507,103.4c4.055-.152,8.11-.355,12.164-.507-.152-10.8-.355-21.642-.507-32.438h7.1c8.768,11.151,17.588,22.3,26.356,33.452,5.575-.355,11.151-.659,16.726-1.014-9.123-11-18.246-21.946-27.37-32.945,17.436-6.589,28.941-22.909,28.89-40.548m-50.178,28.89c.152-19.412.355-38.875.507-58.287h11.151a29.265,29.265,0,0,1,.507,58.287Z" transform="translate(-117.437 -33.781)"/><path class="a" d="M453.723,63.5c-15.307.051-28.687,11.708-30.918,27.37.152,15.712.355,31.424.507,47.137h-5.575c-2.534,4.41-5.068,8.768-7.6,13.178h11.151c.355,10.644.659,21.288,1.014,31.931h13.178V150.677h36.493c-.152,10.8-.355,21.642-.507,32.438H483.12q.988-45.084,2.027-90.219c-1.267-16.675-15.256-29.5-31.424-29.4m-18.246,74.506V88.842a18.872,18.872,0,0,1,35.986,0c.152,16.371.355,32.793.507,49.164Z" transform="translate(-202.259 -31.315)"/><path class="a" d="M573.134,68.5q21.82,60.061,43.589,120.123Q638.238,128.789,659.8,69.007c-4.207-.152-8.464-.355-12.671-.507q-14.977,41.283-29.9,82.616Q602.024,109.833,586.819,68.5Z" transform="translate(-282.643 -33.781)"/><path class="a" d="M751.134,68.514q13.457,31.7,26.863,63.356c.152,17.588.355,35.124.507,52.712h12.164V131.869Q804.581,99.71,818.544,67.5H804.86q-10.111,23.568-20.274,47.137Q774.7,91.6,764.819,68.514Z" transform="translate(-370.425 -33.288)"/><path class="a" d="M1182.334,67l26,64.623c.152,17.588.355,35.124.507,52.712h12.164V131.623q13.913-32.159,27.876-64.369H1235.2q-10.111,23.568-20.274,47.137l-19.615-47.137c-4.308-.1-8.667-.152-12.975-.253" transform="translate(-583.073 -33.041)"/><path class="a" d="M1698.688,110.075c-.051-20.375-15.509-38.723-37-42.575h-33.452c-2.534,4.41-5.068,8.768-7.6,13.178h14.192q.228,51.7.507,103.4c4.055-.152,8.11-.355,12.164-.507-.152-10.8-.355-21.642-.507-32.438h7.1c8.768,11.151,17.587,22.3,26.356,33.452,5.575-.355,11.151-.659,16.726-1.014-9.123-11-18.246-21.946-27.37-32.945,17.385-6.589,28.941-22.909,28.89-40.548m-50.178,28.89c.152-19.412.355-38.875.507-58.287h11.151a29.265,29.265,0,0,1,.507,58.287Z" transform="translate(-799.222 -33.288)"/><path class="a" d="M1493.323,63.6c-15.307.051-28.687,11.708-30.918,27.37.152,15.712.355,31.424.507,47.137h-5.575c-2.534,4.41-5.068,8.768-7.6,13.178h11.151c.355,10.644.659,21.288,1.014,31.931h13.178V150.777h36.493c-.152,10.8-.355,21.642-.507,32.438h11.657q.988-45.084,2.027-90.219c-1.267-16.625-15.256-29.448-31.424-29.4m-18.246,74.506V88.942a18.872,18.872,0,0,1,35.986,0c.152,16.371.355,32.793.507,49.164Z" transform="translate(-714.942 -31.364)"/><path class="a" d="M1521.531,0a14.6,14.6,0,1,0,14.6,14.6,14.6,14.6,0,0,0-14.6-14.6m.152,20.831a6.234,6.234,0,1,1,6.234-6.234,6.23,6.23,0,0,1-6.234,6.234" transform="translate(-743.15)"/><path class="a" d="M1327.134,66.4c.051,4.359.1,8.768.1,13.127,7.451,0,14.9.051,22.352.051q0,52,.051,104.056c4.258.05,8.515.152,12.772.2q.836-52,1.673-104.056l20.933-.152V66.654q-28.89-.152-57.882-.254" transform="translate(-654.481 -32.745)"/><path class="a" d="M1044.187,175.061q-.152-63.33-.253-126.661,23.72,40.674,47.441,81.3-.152-36.721-.253-73.493h13.786q.228,63.711.507,127.421-22.656-34.136-45.363-68.272-1.065,29.879-2.078,59.808c-4.612-.051-9.225-.051-13.786-.1" transform="translate(-514.82 -23.869)"/><path class="a" d="M2317.887,176.161q-.152-63.33-.253-126.661,23.721,40.674,47.441,81.3-.152-36.721-.253-73.493h13.786q.228,63.711.507,127.421-22.656-34.136-45.363-68.272-1.065,29.879-2.078,59.808c-4.613-.05-9.174-.05-13.786-.1" transform="translate(-1142.95 -24.411)"/><path class="a" d="M1847.584,86.808c3.649-2.838,7.3-5.727,11-8.566a33.761,33.761,0,0,0-15.661-13.888c-11.049-4.663-25.9-3.4-35.53,6.285-8.971,9.073-8.768,20.831-8.718,22.251.456,12.722,9.224,24.329,22.3,29.6,1.267.457,3.244,1.166,5.626,2.027,13.888,5.018,14.9,4.967,16.929,6.285,6.133,4.055,9.174,12.519,8.87,19.057-.456,10.137-9.022,21.44-21.794,22.1a23.359,23.359,0,0,1-24.227-20.477l-10.644,2.737c3.041,17.841,17.892,30.766,34.364,31.171,21.186.456,36.341-20.122,35.986-37.76-.3-14.7-12.063-25.292-13.381-26.457a39.847,39.847,0,0,0-11.708-7.2c-4.41-1.014-8.769-1.977-13.178-2.991a18.721,18.721,0,0,1-15.51-17.74,18.361,18.361,0,0,1,16.625-18.55,18.652,18.652,0,0,1,18.652,12.114" transform="translate(-885.573 -30.447)"/><path class="a" d="M1955.534,177.175V53.2q22.048,24.177,44.146,48.354,21.82-23.113,43.589-46.275.532,61.05,1.064,122.1c-4.866.1-9.681.152-14.547.253q-.228-43.563-.405-87.178-15.129,15.966-30.208,31.982-15.586-17.41-31.171-34.77.456,44.7.963,89.408c-4.46.05-8.921.1-13.432.1" transform="translate(-964.379 -26.236)"/><path class="a" d="M2221.794,64.8c.05,4.562.1,9.073.2,13.583q-21.363-.076-42.727-.2c-.1,7.653-.2,15.307-.355,22.96,8.921-.05,17.892-.05,26.813-.1q.913,6.994,1.824,13.989c-9.63,0-19.209-.051-28.839-.051.2,18.094.355,36.189.557,54.283q20.984-.076,41.967-.2c.051,4.714.1,9.427.2,14.192-18.957-.1-37.912-.253-56.868-.355q-.456-34.06-.963-68.069h-12.874c2.027-4.663,4.055-9.326,6.031-13.988h8.11c-.1-12.063-.253-24.177-.355-36.24q28.586.153,57.274.2" transform="translate(-1060.643 -31.857)"/><path class="a" d="M2477.471,64.153v89.762a18.446,18.446,0,0,0,36.8-.405q-.38-44.628-.811-89.2c4.663-.152,9.325-.253,13.989-.405q.076,46.757.2,93.513a32.676,32.676,0,0,1-63.609.811q-.229-46.757-.406-93.513c4.612-.2,9.224-.355,13.837-.558" transform="translate(-1214.95 -31.513)"/><path class="a" d="M2670.906,265.19c.051-2.331.1-4.612.152-6.944a6.51,6.51,0,0,1-4.967-1.622,6.028,6.028,0,0,1-1.977-4.511c.2-3.041,3.446-4.967,4.156-5.322,7.2-3.7,24.785,16.219,27.37,19.159,2.433.051,4.916.1,7.349.2V240c-2.332.1-4.714.152-7.045.253.051,5.625.152,11.3.2,16.929-3.852-3.548-7.7-7.045-11.556-10.593a22.293,22.293,0,0,0-9.225-5.272c-2.484-.71-6.234-1.723-10.187-.2-4.46,1.723-8.819,6.589-8.465,12.266.355,6.285,6.437,11.962,14.192,11.81" transform="translate(-1310.159 -118.357)"/><path class="a" d="M2670.606,79.79c.051-2.331.1-4.612.152-6.944a6.51,6.51,0,0,1-4.967-1.622,6.029,6.029,0,0,1-1.977-4.511c.2-3.041,3.446-4.967,4.156-5.322,7.2-3.7,24.785,16.219,27.37,19.159,2.433.051,4.917.1,7.35.2V54.6c-2.332.1-4.714.152-7.046.253.051,5.625.153,11.3.2,16.929-3.852-3.548-7.7-7.045-11.556-10.593a22.3,22.3,0,0,0-9.225-5.272c-2.484-.71-6.234-1.723-10.187-.2-4.461,1.723-8.819,6.589-8.464,12.266.406,6.285,6.488,11.962,14.192,11.81" transform="translate(-1310.011 -26.926)"/><path class="a" d="M2670.606,136.59c.051-2.331.1-4.612.152-6.944a6.51,6.51,0,0,1-4.967-1.622,6.029,6.029,0,0,1-1.977-4.511c.2-3.041,3.446-4.967,4.156-5.322,7.2-3.7,24.785,16.219,27.37,19.159,2.433.051,4.917.1,7.35.2V111.4c-2.332.1-4.714.152-7.046.253.051,5.625.153,11.3.2,16.929-3.852-3.548-7.7-7.045-11.556-10.593a22.3,22.3,0,0,0-9.225-5.272c-2.484-.71-6.234-1.723-10.187-.2-4.461,1.723-8.819,6.589-8.464,12.266.406,6.286,6.488,11.911,14.192,11.81" transform="translate(-1310.011 -54.937)"/><path class="a" d="M2705.208,189.51a16.107,16.107,0,0,0-1.976-6.944,11.224,11.224,0,0,0-4.461-4.156c-9.275-.253-18.551-.456-27.825-.71a8,8,0,0,0-3.294.608c-3.4,1.419-4.714,4.764-5.374,6.336a13.981,13.981,0,0,0-.354,9.782c.354,1.064,1.926,5.372,6.082,6.994a9.487,9.487,0,0,0,2.889.609h28.333c3.8-1.673,6.286-6.893,5.981-12.519m-10.492,7.147c-7.856-.2-15.712-.355-23.619-.558a6.873,6.873,0,0,1-5.068-5.727,7.017,7.017,0,0,1,4.815-7.4c8.06.355,16.118.659,24.177,1.014a6.559,6.559,0,0,1-.3,12.671" transform="translate(-1312.378 -87.633)"/></g></g></svg>