<svg xmlns="http://www.w3.org/2000/svg" xmlns:xlink="http://www.w3.org/1999/xlink" width="56" height="56" viewBox="0 0 56 56"><defs><style>.a{fill:#575455;}.b{clip-path:url(#a);}</style><clipPath id="a"><rect class="a" width="56" height="56" transform="translate(0 0.383)"/></clipPath></defs><g class="b" transform="translate(0 -0.383)"><path class="a" d="M28.191,0A28.191,28.191,0,1,0,56.383,28.191,28.192,28.192,0,0,0,28.191,0ZM36.6,16.1a4.313,4.313,0,1,1-4.313,4.313A4.313,4.313,0,0,1,36.6,16.1m-16.946,0a4.313,4.313,0,1,1-4.313,4.313A4.313,4.313,0,0,1,19.654,16.1m7.934,32.514A22.914,22.914,0,0,1,5.555,25.881l4.313-.308A18.661,18.661,0,0,0,27.584,44.059a18.68,18.68,0,0,0,19.13-18.178h4.113A22.932,22.932,0,0,1,27.695,48.613h-.111"/></g></svg>