<svg xmlns="http://www.w3.org/2000/svg" xmlns:xlink="http://www.w3.org/1999/xlink" width="888.802" height="148.122" viewBox="0 0 888.802 148.122"><defs><style>.a{fill:#575455;}.b{clip-path:url(#a);}</style><clipPath id="a"><rect class="a" width="888.802" height="148.122"/></clipPath></defs><g class="b"><path class="a" d="M268.762,36.354C266.489,33.305,245.7,6.64,213.324,7.527c-33.817.942-66.137,31.433-64.308,69.3,1.608,32.985,28.772,61.647,63.2,62.644,34.538,1,64.585-26.222,67.079-61.536-19.4-.166-38.806-.388-58.21-.554-3.16,4.823-6.264,9.591-9.424,14.414,17.186.166,34.371.388,51.557.554-8.981,20.955-29.493,34.15-51,33.263-26.277-1.109-48.674-23.062-49.894-49.894-1.386-30.324,24.725-54.273,51.557-54.883,25.557-.61,41.911,20.235,43.8,22.729,3.714-2.439,7.429-4.823,11.088-7.207" transform="translate(-66.372 -3.344)"/><path class="a" d="M539.811,138.539Q539.645,69.269,539.534,0q25.945,44.489,51.89,88.922-.166-40.165-.277-80.385h15.079q.249,69.685.554,139.37Q582,110.57,557.163,73.233q-1.164,32.68-2.273,65.416c-5.045-.055-10.034-.055-15.079-.111" transform="translate(-240.429)"/><path class="a" d="M456.358,15.525c.055,4.989.111,9.923.222,14.857q-23.367-.083-46.734-.222c-.111,8.371-.222,16.743-.388,25.113,9.757-.055,19.569-.055,29.326-.111l2,15.3c-10.533,0-21.011-.055-31.544-.055.222,19.791.388,39.582.61,59.374q22.951-.083,45.9-.222c.055,5.156.111,10.311.222,15.523-20.734-.111-41.467-.277-62.2-.388q-.5-37.254-1.053-74.453H378.634c2.217-5.1,4.435-10.2,6.6-15.3h8.87c-.111-13.194-.277-26.444-.388-39.638q31.267.167,62.645.222" transform="translate(-168.728 -6.819)"/><path class="a" d="M737.194,43.23c3.991-2.981,7.983-6.017,12.03-9a36.4,36.4,0,0,0-17.13-14.59c-12.085-4.9-28.329-3.567-38.862,6.6A32.406,32.406,0,0,0,683.7,49.62c.5,13.364,10.09,25.558,24.393,31.1,1.386.48,3.548,1.225,6.154,2.13,15.19,5.272,16.3,5.218,18.516,6.6,6.708,4.26,10.034,13.152,9.7,20.02-.5,10.65-9.868,22.523-23.838,23.216-13.139.692-24.891-8.786-26.5-21.512l-11.642,2.876c3.326,18.743,19.57,32.321,37.587,32.746,23.173.48,39.749-21.139,39.361-39.668-.333-15.442-13.194-26.57-14.636-27.795a43.966,43.966,0,0,0-12.806-7.561c-4.823-1.065-9.591-2.077-14.414-3.142-9.646-1.65-16.742-9.585-16.964-18.636-.222-9.957,7.928-18.743,18.184-19.488a20.5,20.5,0,0,1,20.4,12.726" transform="translate(-303.239 -7.529)"/><path class="a" d="M15.134,16.668v98.18A20.453,20.453,0,0,0,34.7,133.364,20.452,20.452,0,0,0,55.382,114.4q-.416-48.813-.887-97.57c5.1-.166,10.2-.277,15.3-.444q.083,51.141.222,102.282a36.012,36.012,0,0,1-35.092,28A36.1,36.1,0,0,1,.444,119.56Q.194,68.419,0,17.278c5.1-.166,10.145-.388,15.134-.61" transform="translate(0 -7.304)"/><path class="a" d="M1331.224,138.926q-.166-69.269-.277-138.539,25.945,44.489,51.89,88.922-.166-40.165-.277-80.385h15.079q.249,69.685.554,139.37-24.781-37.337-49.617-74.674-1.164,32.68-2.273,65.416c-5.045,0-10.09-.055-15.079-.111" transform="translate(-593.102 -0.172)"/><path class="a" d="M968.847,139.687V4.087q24.115,26.444,48.286,52.888Q1041,31.695,1064.81,6.36q.582,66.775,1.164,133.549c-5.322.111-10.589.166-15.911.277q-.25-47.648-.443-95.353-16.548,17.463-33.041,34.981-17.047-19.043-34.094-38.03.5,48.9,1.053,97.792c-4.879.11-9.757.11-14.691.11" transform="translate(-431.741 -1.821)"/><path class="a" d="M1241.671,15.852c.055,4.989.111,9.923.222,14.857q-23.367-.083-46.734-.222c-.111,8.371-.222,16.743-.388,25.113,9.757-.055,19.57-.055,29.327-.111l2,15.3c-10.533,0-21.011-.055-31.544-.055.222,19.791.388,39.582.61,59.374q22.951-.083,45.9-.222c.055,5.156.111,10.311.222,15.523-20.734-.111-41.467-.277-62.2-.388q-.5-37.254-1.053-74.4h-14.081c2.218-5.1,4.435-10.2,6.6-15.3h8.87c-.111-13.194-.277-26.444-.388-39.638l62.644.167" transform="translate(-518.683 -6.99)"/><path class="a" d="M1492.081,15.064v98.18a20.176,20.176,0,0,0,40.248-.443q-.416-48.813-.887-97.57c5.1-.166,10.2-.277,15.3-.444q.083,51.141.222,102.282a35.74,35.74,0,0,1-69.574.887q-.25-51.141-.443-102.282c5.045-.166,10.09-.388,15.134-.61" transform="translate(-658.163 -6.589)"/></g></svg>